<svg width="613" height="140" viewBox="0 0 613 140" fill="none" xmlns="http://www.w3.org/2000/svg">
<path d="M16.32 113V37.52L26.52 47.36H0.72V29H40.08V113H16.32ZM65.4328 113L98.1928 37.76L104.553 47.84H61.9528L71.6728 36.92V60.8H51.3928V29H120.993V43.88L91.3528 113H65.4328ZM162.658 114.68C155.378 114.68 149.018 113.6 143.578 111.44C138.138 109.28 133.858 106.24 130.738 102.32C127.698 98.32 126.178 93.64 126.178 88.28C126.178 83 127.698 78.52 130.738 74.84C133.858 71.08 138.138 68.24 143.578 66.32C149.098 64.32 155.458 63.32 162.658 63.32C169.858 63.32 176.178 64.32 181.618 66.32C187.138 68.24 191.418 71.08 194.458 74.84C197.578 78.52 199.138 83 199.138 88.28C199.138 93.64 197.618 98.32 194.578 102.32C191.538 106.24 187.258 109.28 181.738 111.44C176.298 113.6 169.938 114.68 162.658 114.68ZM162.658 98C166.498 98 169.538 97.08 171.778 95.24C174.098 93.4 175.258 90.84 175.258 87.56C175.258 84.36 174.098 81.84 171.778 80C169.538 78.08 166.498 77.12 162.658 77.12C158.818 77.12 155.738 78.08 153.418 80C151.178 81.84 150.058 84.36 150.058 87.56C150.058 90.84 151.178 93.4 153.418 95.24C155.738 97.08 158.818 98 162.658 98ZM162.658 75.08C156.098 75.08 150.298 74.16 145.258 72.32C140.298 70.48 136.378 67.84 133.498 64.4C130.618 60.88 129.178 56.68 129.178 51.8C129.178 46.76 130.578 42.44 133.378 38.84C136.258 35.24 140.218 32.44 145.258 30.44C150.298 28.36 156.098 27.32 162.658 27.32C169.298 27.32 175.098 28.36 180.058 30.44C185.098 32.44 189.018 35.24 191.818 38.84C194.698 42.44 196.138 46.76 196.138 51.8C196.138 56.68 194.698 60.88 191.818 64.4C189.018 67.84 185.098 70.48 180.058 72.32C175.018 74.16 169.218 75.08 162.658 75.08ZM162.658 61.64C165.698 61.64 168.138 60.88 169.978 59.36C171.818 57.76 172.738 55.6 172.738 52.88C172.738 50 171.778 47.8 169.858 46.28C168.018 44.76 165.618 44 162.658 44C159.698 44 157.298 44.76 155.458 46.28C153.618 47.8 152.698 50 152.698 52.88C152.698 55.6 153.618 57.76 155.458 59.36C157.298 60.88 159.698 61.64 162.658 61.64ZM218.12 113L275.48 29H292.76L235.4 113H218.12ZM225.8 74.48C221.72 74.48 218.04 73.56 214.76 71.72C211.48 69.88 208.92 67.24 207.08 63.8C205.24 60.28 204.32 56.08 204.32 51.2C204.32 46.32 205.24 42.16 207.08 38.72C208.92 35.28 211.48 32.64 214.76 30.8C218.04 28.88 221.72 27.92 225.8 27.92C229.96 27.92 233.64 28.88 236.84 30.8C240.12 32.64 242.68 35.28 244.52 38.72C246.44 42.16 247.4 46.32 247.4 51.2C247.4 56 246.44 60.16 244.52 63.68C242.68 67.2 240.12 69.88 236.84 71.72C233.64 73.56 229.96 74.48 225.8 74.48ZM225.92 63.08C227.92 63.08 229.56 62.16 230.84 60.32C232.2 58.48 232.88 55.44 232.88 51.2C232.88 46.96 232.2 43.92 230.84 42.08C229.56 40.24 227.92 39.32 225.92 39.32C223.92 39.32 222.2 40.24 220.76 42.08C219.4 43.92 218.72 46.96 218.72 51.2C218.72 55.44 219.4 58.48 220.76 60.32C222.2 62.16 223.92 63.08 225.92 63.08ZM285.08 114.08C280.92 114.08 277.2 113.16 273.92 111.32C270.72 109.48 268.2 106.84 266.36 103.4C264.52 99.88 263.6 95.68 263.6 90.8C263.6 85.92 264.52 81.76 266.36 78.32C268.2 74.88 270.72 72.24 273.92 70.4C277.2 68.48 280.92 67.52 285.08 67.52C289.24 67.52 292.92 68.48 296.12 70.4C299.4 72.24 301.96 74.88 303.8 78.32C305.72 81.76 306.68 85.92 306.68 90.8C306.68 95.68 305.72 99.88 303.8 103.4C301.96 106.84 299.4 109.48 296.12 111.32C292.92 113.16 289.24 114.08 285.08 114.08ZM285.08 102.68C287.08 102.68 288.76 101.76 290.12 99.92C291.48 98.08 292.16 95.04 292.16 90.8C292.16 86.56 291.48 83.52 290.12 81.68C288.76 79.84 287.08 78.92 285.08 78.92C283.16 78.92 281.48 79.84 280.04 81.68C278.68 83.52 278 86.56 278 90.8C278 95.04 278.68 98.08 280.04 99.92C281.48 101.76 283.16 102.68 285.08 102.68Z" fill="#ffffff"/>
<path d="M358.8 62.7C355.967 62.7 353.217 62.35 350.55 61.65C347.883 60.95 345.717 60.0167 344.05 58.85L347.3 51.55C348.867 52.5833 350.683 53.4167 352.75 54.05C354.817 54.6833 356.85 55 358.85 55C362.65 55 364.55 54.05 364.55 52.15C364.55 51.15 364 50.4167 362.9 49.95C361.833 49.45 360.1 48.9333 357.7 48.4C355.067 47.8333 352.867 47.2333 351.1 46.6C349.333 45.9333 347.817 44.8833 346.55 43.45C345.283 42.0167 344.65 40.0833 344.65 37.65C344.65 35.5167 345.233 33.6 346.4 31.9C347.567 30.1667 349.3 28.8 351.6 27.8C353.933 26.8 356.783 26.3 360.15 26.3C362.45 26.3 364.717 26.5667 366.95 27.1C369.183 27.6 371.15 28.35 372.85 29.35L369.8 36.7C366.467 34.9 363.233 34 360.1 34C358.133 34 356.7 34.3 355.8 34.9C354.9 35.4667 354.45 36.2167 354.45 37.15C354.45 38.0833 354.983 38.7833 356.05 39.25C357.117 39.7167 358.833 40.2 361.2 40.7C363.867 41.2667 366.067 41.8833 367.8 42.55C369.567 43.1833 371.083 44.2167 372.35 45.65C373.65 47.05 374.3 48.9667 374.3 51.4C374.3 53.5 373.717 55.4 372.55 57.1C371.383 58.8 369.633 60.1667 367.3 61.2C364.967 62.2 362.133 62.7 358.8 62.7ZM389.973 34.45C394.473 34.45 397.906 35.4833 400.273 37.55C402.64 39.5833 403.823 42.7167 403.823 46.95V62H394.973V58.5C393.606 61.1333 390.94 62.45 386.973 62.45C384.873 62.45 383.056 62.0833 381.523 61.35C379.99 60.6167 378.823 59.6333 378.023 58.4C377.256 57.1333 376.873 55.7 376.873 54.1C376.873 51.5333 377.856 49.55 379.823 48.15C381.79 46.7167 384.823 46 388.923 46H394.323C394.156 43.1333 392.24 41.7 388.573 41.7C387.273 41.7 385.956 41.9167 384.623 42.35C383.29 42.75 382.156 43.3167 381.223 44.05L378.023 37.6C379.523 36.6 381.34 35.8333 383.473 35.3C385.64 34.7333 387.806 34.45 389.973 34.45ZM389.623 56.45C390.723 56.45 391.69 56.1833 392.523 55.65C393.356 55.1167 393.956 54.3333 394.323 53.3V50.95H390.223C387.456 50.95 386.073 51.8667 386.073 53.7C386.073 54.5333 386.39 55.2 387.023 55.7C387.656 56.2 388.523 56.45 389.623 56.45ZM409.82 24.9H419.32V62H409.82V24.9ZM437.043 34.45C441.543 34.45 444.977 35.4833 447.343 37.55C449.71 39.5833 450.893 42.7167 450.893 46.95V62H442.043V58.5C440.677 61.1333 438.01 62.45 434.043 62.45C431.943 62.45 430.127 62.0833 428.593 61.35C427.06 60.6167 425.893 59.6333 425.093 58.4C424.327 57.1333 423.943 55.7 423.943 54.1C423.943 51.5333 424.927 49.55 426.893 48.15C428.86 46.7167 431.893 46 435.993 46H441.393C441.227 43.1333 439.31 41.7 435.643 41.7C434.343 41.7 433.027 41.9167 431.693 42.35C430.36 42.75 429.227 43.3167 428.293 44.05L425.093 37.6C426.593 36.6 428.41 35.8333 430.543 35.3C432.71 34.7333 434.877 34.45 437.043 34.45ZM436.693 56.45C437.793 56.45 438.76 56.1833 439.593 55.65C440.427 55.1167 441.027 54.3333 441.393 53.3V50.95H437.293C434.527 50.95 433.143 51.8667 433.143 53.7C433.143 54.5333 433.46 55.2 434.093 55.7C434.727 56.2 435.593 56.45 436.693 56.45ZM465.94 38.15C466.907 36.9167 468.157 36 469.69 35.4C471.257 34.7667 473.04 34.45 475.04 34.45V43C474.173 42.9 473.457 42.85 472.89 42.85C470.857 42.85 469.257 43.4 468.09 44.5C466.957 45.6 466.39 47.2833 466.39 49.55V62H456.89V34.9H465.94V38.15ZM508.34 34.9L496.64 63.1C495.274 66.4333 493.607 68.7667 491.64 70.1C489.674 71.4667 487.274 72.15 484.44 72.15C483.007 72.15 481.557 71.9167 480.09 71.45C478.657 71.0167 477.49 70.4333 476.59 69.7L479.89 63.05C480.424 63.55 481.057 63.9333 481.79 64.2C482.557 64.5 483.324 64.65 484.09 64.65C484.99 64.65 485.724 64.4667 486.29 64.1C486.89 63.7333 487.39 63.15 487.79 62.35L476.19 34.9H485.94L492.59 51.45L499.29 34.9H508.34ZM346.5 79H356.4V114H346.5V79ZM380.643 86.45C384.01 86.45 386.71 87.45 388.743 89.45C390.81 91.45 391.843 94.4667 391.843 98.5V114H382.343V100.05C382.343 96.35 380.86 94.5 377.893 94.5C376.26 94.5 374.943 95.0333 373.943 96.1C372.977 97.1667 372.493 98.7667 372.493 100.9V114H362.993V86.9H372.043V89.85C373.11 88.75 374.377 87.9167 375.843 87.35C377.31 86.75 378.91 86.45 380.643 86.45ZM412.048 114.45C409.048 114.45 406.365 113.85 403.998 112.65C401.632 111.45 399.782 109.783 398.448 107.65C397.148 105.517 396.498 103.1 396.498 100.4C396.498 97.7 397.148 95.3 398.448 93.2C399.782 91.0667 401.632 89.4167 403.998 88.25C406.365 87.05 409.048 86.45 412.048 86.45C415.115 86.45 417.765 87.1167 419.998 88.45C422.232 89.75 423.815 91.5667 424.748 93.9L417.398 97.65C416.165 95.2167 414.365 94 411.998 94C410.298 94 408.882 94.5667 407.748 95.7C406.648 96.8333 406.098 98.4 406.098 100.4C406.098 102.433 406.648 104.033 407.748 105.2C408.882 106.333 410.298 106.9 411.998 106.9C414.365 106.9 416.165 105.683 417.398 103.25L424.748 107C423.815 109.333 422.232 111.167 419.998 112.5C417.765 113.8 415.115 114.45 412.048 114.45ZM437.375 90.15C438.342 88.9167 439.592 88 441.125 87.4C442.692 86.7667 444.475 86.45 446.475 86.45V95C445.609 94.9 444.892 94.85 444.325 94.85C442.292 94.85 440.692 95.4 439.525 96.5C438.392 97.6 437.825 99.2833 437.825 101.55V114H428.325V86.9H437.375V90.15ZM477.852 100.5C477.852 100.567 477.802 101.35 477.702 102.85H458.002C458.402 104.25 459.168 105.333 460.302 106.1C461.468 106.833 462.918 107.2 464.652 107.2C465.952 107.2 467.068 107.017 468.002 106.65C468.968 106.283 469.935 105.683 470.902 104.85L475.902 110.05C473.268 112.983 469.418 114.45 464.352 114.45C461.185 114.45 458.402 113.85 456.002 112.65C453.602 111.45 451.735 109.783 450.402 107.65C449.102 105.517 448.452 103.1 448.452 100.4C448.452 97.7333 449.085 95.35 450.352 93.25C451.652 91.1167 453.435 89.45 455.702 88.25C457.968 87.05 460.518 86.45 463.352 86.45C466.052 86.45 468.502 87.0167 470.702 88.15C472.902 89.25 474.635 90.8667 475.902 93C477.202 95.1 477.852 97.6 477.852 100.5ZM463.402 93.2C461.935 93.2 460.702 93.6167 459.702 94.45C458.735 95.2833 458.118 96.4167 457.852 97.85H468.952C468.685 96.4167 468.052 95.2833 467.052 94.45C466.085 93.6167 464.868 93.2 463.402 93.2ZM493.049 86.45C497.549 86.45 500.983 87.4833 503.349 89.55C505.716 91.5833 506.899 94.7167 506.899 98.95V114H498.049V110.5C496.683 113.133 494.016 114.45 490.049 114.45C487.949 114.45 486.133 114.083 484.599 113.35C483.066 112.617 481.899 111.633 481.099 110.4C480.333 109.133 479.949 107.7 479.949 106.1C479.949 103.533 480.933 101.55 482.899 100.15C484.866 98.7167 487.899 98 491.999 98H497.399C497.233 95.1333 495.316 93.7 491.649 93.7C490.349 93.7 489.033 93.9167 487.699 94.35C486.366 94.75 485.233 95.3167 484.299 96.05L481.099 89.6C482.599 88.6 484.416 87.8333 486.549 87.3C488.716 86.7333 490.883 86.45 493.049 86.45ZM492.699 108.45C493.799 108.45 494.766 108.183 495.599 107.65C496.433 107.117 497.033 106.333 497.399 105.3V102.95H493.299C490.533 102.95 489.149 103.867 489.149 105.7C489.149 106.533 489.466 107.2 490.099 107.7C490.733 108.2 491.599 108.45 492.699 108.45ZM522.746 114.45C520.479 114.45 518.246 114.2 516.046 113.7C513.846 113.167 512.079 112.483 510.746 111.65L513.596 105.15C514.829 105.917 516.296 106.533 517.996 107C519.696 107.433 521.379 107.65 523.046 107.65C524.579 107.65 525.662 107.5 526.296 107.2C526.962 106.867 527.296 106.4 527.296 105.8C527.296 105.2 526.896 104.783 526.096 104.55C525.329 104.283 524.096 104.033 522.396 103.8C520.229 103.533 518.379 103.183 516.846 102.75C515.346 102.317 514.046 101.517 512.946 100.35C511.846 99.1833 511.296 97.55 511.296 95.45C511.296 93.7167 511.812 92.1833 512.846 90.85C513.879 89.4833 515.379 88.4167 517.346 87.65C519.346 86.85 521.729 86.45 524.496 86.45C526.462 86.45 528.412 86.65 530.346 87.05C532.279 87.45 533.896 88.0167 535.196 88.75L532.346 95.2C529.946 93.8667 527.346 93.2 524.546 93.2C523.046 93.2 521.946 93.3833 521.246 93.75C520.546 94.0833 520.196 94.5333 520.196 95.1C520.196 95.7333 520.579 96.1833 521.346 96.45C522.112 96.6833 523.379 96.9333 525.146 97.2C527.379 97.5333 529.229 97.9167 530.696 98.35C532.162 98.7833 533.429 99.5833 534.496 100.75C535.596 101.883 536.146 103.483 536.146 105.55C536.146 107.25 535.629 108.783 534.596 110.15C533.562 111.483 532.029 112.533 529.996 113.3C527.996 114.067 525.579 114.45 522.746 114.45ZM567.939 100.5C567.939 100.567 567.889 101.35 567.789 102.85H548.089C548.489 104.25 549.256 105.333 550.389 106.1C551.556 106.833 553.006 107.2 554.739 107.2C556.039 107.2 557.156 107.017 558.089 106.65C559.056 106.283 560.023 105.683 560.989 104.85L565.989 110.05C563.356 112.983 559.506 114.45 554.439 114.45C551.273 114.45 548.489 113.85 546.089 112.65C543.689 111.45 541.823 109.783 540.489 107.65C539.189 105.517 538.539 103.1 538.539 100.4C538.539 97.7333 539.173 95.35 540.439 93.25C541.739 91.1167 543.523 89.45 545.789 88.25C548.056 87.05 550.606 86.45 553.439 86.45C556.139 86.45 558.589 87.0167 560.789 88.15C562.989 89.25 564.723 90.8667 565.989 93C567.289 95.1 567.939 97.6 567.939 100.5ZM553.489 93.2C552.023 93.2 550.789 93.6167 549.789 94.45C548.823 95.2833 548.206 96.4167 547.939 97.85H559.039C558.773 96.4167 558.139 95.2833 557.139 94.45C556.173 93.6167 554.956 93.2 553.489 93.2ZM585.343 87.1L590.443 89.85L587.543 94.65L582.293 91.5L582.443 97.25H576.743L576.893 91.5L571.643 94.65L568.793 89.85L573.893 87.1L568.793 84.3L571.643 79.5L576.893 82.7L576.743 76.9H582.443L582.293 82.7L587.543 79.5L590.443 84.3L585.343 87.1Z" fill="#ffffff"/>
<script xmlns=""/></svg>