<svg width="60" height="59" viewBox="0 0 60 59" fill="none" xmlns="http://www.w3.org/2000/svg">
<g style="mix-blend-mode:multiply">
<path d="M30 58.4481C46.5685 58.4481 60 56.3674 60 53.8007C60 51.234 46.5685 49.1533 30 49.1533C13.4315 49.1533 0 51.234 0 53.8007C0 56.3674 13.4315 58.4481 30 58.4481Z" fill="#E0E0E0"/>
</g>
<path d="M54.5863 45.6598L3.17201 45.5345C2.34486 45.5345 1.55158 45.2059 0.966694 44.621C0.381808 44.0361 0.0532227 43.2429 0.0532227 42.4157L0.159376 10.3723V10.2948C0.159236 9.88485 0.239908 9.47892 0.396779 9.10021C0.553649 8.72149 0.78364 8.37741 1.0736 8.08765C1.36355 7.79789 1.70779 7.56813 2.08662 7.41152C2.46544 7.25491 2.87142 7.17451 3.28135 7.17493H14.7374V8.332H3.28984C3.027 8.3238 2.76521 8.36864 2.52009 8.46384C2.27496 8.55904 2.05153 8.70266 1.86314 8.88612C1.48867 9.26055 1.27827 9.7684 1.27823 10.298L1.14448 42.3605C1.14475 42.8922 1.35497 43.4023 1.72938 43.7798C1.91272 43.9656 2.13124 44.113 2.37219 44.2135C2.61314 44.3139 2.87169 44.3653 3.13273 44.3647L54.5545 44.5048C54.8162 44.5059 55.0756 44.4552 55.3176 44.3555C55.5596 44.2558 55.7794 44.1091 55.9644 43.9239C56.1494 43.7387 56.2958 43.5187 56.3953 43.2766C56.4947 43.0345 56.5452 42.7751 56.5438 42.5134L56.6839 10.4391C56.6831 9.9109 56.4738 9.40435 56.1014 9.02963C55.7291 8.65492 55.2239 8.44235 54.6957 8.43815H43.0846V7.27684L54.6797 7.32354C55.0895 7.32326 55.4953 7.40373 55.8739 7.56034C56.2525 7.71695 56.5966 7.94663 56.8864 8.23626C57.1763 8.5259 57.4062 8.8698 57.563 9.24833C57.7199 9.62686 57.8007 10.0326 57.8007 10.4423L57.6945 42.4699C57.7072 42.8915 57.6343 43.3114 57.4801 43.704C57.326 44.0967 57.0937 44.454 56.7975 44.7543C56.5076 45.0454 56.1623 45.2755 55.782 45.4309C55.4016 45.5862 54.994 45.6637 54.5831 45.6587L54.5863 45.6598Z" fill="#1A3350"/>
<path d="M5.08293 12.242C5.66862 12.242 6.14341 11.7672 6.14341 11.1815C6.14341 10.5958 5.66862 10.121 5.08293 10.121C4.49725 10.121 4.02246 10.5958 4.02246 11.1815C4.02246 11.7672 4.49725 12.242 5.08293 12.242Z" fill="#1A3350"/>
<path d="M8.40373 12.2421C8.98942 12.2421 9.46421 11.7673 9.46421 11.1816C9.46421 10.5959 8.98942 10.1212 8.40373 10.1212C7.81805 10.1212 7.34326 10.5959 7.34326 11.1816C7.34326 11.7673 7.81805 12.2421 8.40373 12.2421Z" fill="#1A3350"/>
<path d="M11.7656 12.2421C12.3512 12.2421 12.826 11.7673 12.826 11.1816C12.826 10.5959 12.3512 10.1212 11.7656 10.1212C11.1799 10.1212 10.7051 10.5959 10.7051 11.1816C10.7051 11.7673 11.1799 12.2421 11.7656 12.2421Z" fill="#1A3350"/>
<path d="M14.5584 15.4006H0.701158C0.552425 15.3942 0.411902 15.3307 0.308916 15.2232C0.20593 15.1157 0.148438 14.9725 0.148438 14.8237C0.148438 14.6748 0.20593 14.5317 0.308916 14.4242C0.411902 14.3167 0.552425 14.2531 0.701158 14.2467H14.5584C14.7071 14.2531 14.8477 14.3167 14.9507 14.4242C15.0536 14.5317 15.1111 14.6748 15.1111 14.8237C15.1111 14.9725 15.0536 15.1157 14.9507 15.2232C14.8477 15.3307 14.7071 15.3942 14.5584 15.4006Z" fill="#1A3350"/>
<path d="M57.0514 15.4017H43.1942C43.1183 15.4017 43.0432 15.3867 42.9732 15.3577C42.9031 15.3287 42.8395 15.2862 42.7858 15.2325C42.7322 15.1789 42.6897 15.1153 42.6607 15.0452C42.6316 14.9751 42.6167 14.9 42.6167 14.8242C42.6167 14.6711 42.6775 14.5242 42.7858 14.4159C42.8941 14.3076 43.041 14.2467 43.1942 14.2467H57.0514C57.2046 14.2467 57.3515 14.3076 57.4598 14.4159C57.5681 14.5242 57.6289 14.6711 57.6289 14.8242C57.6289 14.9 57.614 14.9751 57.5849 15.0452C57.5559 15.1153 57.5134 15.1789 57.4598 15.2325C57.4061 15.2862 57.3425 15.3287 57.2724 15.3577C57.2024 15.3867 57.1273 15.4017 57.0514 15.4017Z" fill="#1A3350"/>
<path d="M38.6475 51.9942H19.1514V48.6101H24.5397V45.0847H25.6936V49.764H20.3297V50.8404H37.4851V49.764H32.1127V45.0847H33.2666V48.6101H38.6401L38.6475 51.9942Z" fill="#1A3350"/>
<path d="M37.6803 31.7547H20.1416C19.7668 31.7574 19.3952 31.686 19.048 31.5446C18.7009 31.4032 18.3851 31.1947 18.1188 30.9309C17.8525 30.6672 17.6409 30.3534 17.4962 30.0077C17.3514 29.6619 17.2764 29.291 17.2755 28.9162V3.42343C17.2728 3.04863 17.3442 2.67698 17.4856 2.32985C17.6269 1.98271 17.8355 1.66692 18.0992 1.40061C18.363 1.13429 18.6768 0.922701 19.0225 0.77798C19.3683 0.63326 19.7392 0.558262 20.114 0.557292H37.6803C38.0574 0.55461 38.4313 0.626914 38.7803 0.770001C39.1292 0.913088 39.4462 1.1241 39.7129 1.39079C39.9796 1.65747 40.1906 1.9745 40.3337 2.32344C40.4768 2.67239 40.5491 3.0463 40.5464 3.42343V28.8928C40.5453 29.6522 40.2428 30.3801 39.7054 30.9167C39.168 31.4533 38.4397 31.7547 37.6803 31.7547Z" fill="#1A3350"/>
<path d="M20.1254 32.3322C19.2274 32.32 18.37 31.9562 17.7373 31.3189C17.1046 30.6816 16.747 29.8216 16.7412 28.9236V3.42345C16.743 2.52411 17.0979 1.66145 17.7295 1.02117C18.361 0.380893 19.2187 0.0141894 20.1179 0H37.6948C38.1444 0 38.5896 0.08855 39.0049 0.260594C39.4203 0.432638 39.7977 0.684808 40.1156 1.0027C40.4335 1.3206 40.6856 1.698 40.8577 2.11335C41.0297 2.5287 41.1183 2.97387 41.1183 3.42345V28.8928C41.1122 29.8038 40.7481 30.6758 40.1046 31.3207C39.4611 31.9656 38.5899 32.3316 37.6789 32.3396H20.1254V32.3322ZM37.6874 1.13903H20.1381C19.5323 1.13903 18.9512 1.3797 18.5228 1.80812C18.0944 2.23653 17.8537 2.81758 17.8537 3.42345V28.9002C17.8536 29.2003 17.9125 29.4975 18.0273 29.7748C18.142 30.0521 18.3103 30.304 18.5224 30.5163C18.7346 30.7285 18.9864 30.8969 19.2637 31.0117C19.5409 31.1266 19.838 31.1857 20.1381 31.1857H37.6715C38.2747 31.1749 38.8504 30.931 39.2778 30.5052C39.7053 30.0793 39.9513 29.5045 39.9644 28.9013V3.42451C39.9666 2.81974 39.729 2.23875 39.3036 1.80893C38.8781 1.3791 38.2996 1.13552 37.6948 1.13159L37.6874 1.13903Z" fill="#1A3350"/>
<path d="M28.8363 5.28001C28.4229 5.27236 28.0098 5.30794 27.6038 5.38616C26.5062 5.56025 26.2939 5.98911 26.2939 6.73006V7.72047H28.9138V8.03893H25.3194C24.9391 8.03427 24.569 8.16149 24.2719 8.39895C23.9748 8.63642 23.7692 8.96946 23.69 9.34143C23.4399 10.2084 23.4399 11.1283 23.69 11.9953C23.8694 12.7755 24.3269 13.3052 25.07 13.3052H25.951V12.1375C25.9629 11.7098 26.1386 11.303 26.4418 11.0011C26.7451 10.6992 27.1527 10.5254 27.5805 10.5155H30.1621C30.5077 10.5095 30.8374 10.3696 31.0817 10.1252C31.3261 9.88081 31.4661 9.5511 31.4721 9.20556V6.73006C31.4509 6.38649 31.307 6.06197 31.0665 5.81566C30.8261 5.56935 30.5051 5.41768 30.1621 5.38828C29.7188 5.31429 29.2698 5.27878 28.8203 5.28213L28.8363 5.28001ZM27.4404 6.06236C27.5707 6.06236 27.6957 6.11414 27.7879 6.20631C27.8801 6.29848 27.9318 6.4235 27.9318 6.55385C27.9408 6.66346 27.9159 6.77318 27.8606 6.8682C27.8052 6.96321 27.722 7.03893 27.6222 7.08514C27.5224 7.13134 27.4108 7.14579 27.3025 7.12655C27.1942 7.1073 27.0945 7.05528 27.0167 6.97751C26.9389 6.89975 26.8869 6.79998 26.8677 6.6917C26.8484 6.58342 26.8629 6.47185 26.9091 6.37204C26.9553 6.27224 27.031 6.18903 27.126 6.13364C27.221 6.07826 27.3307 6.05338 27.4404 6.06236Z" fill="white"/>
<path d="M31.8447 8.0329V9.20059C31.8429 9.63515 31.6717 10.0519 31.3674 10.3621C31.0631 10.6724 30.6497 10.8517 30.2153 10.8619H27.657C27.3122 10.8679 26.9832 11.0081 26.7401 11.2527C26.4969 11.4973 26.3586 11.827 26.3545 12.1718V14.6463C26.3545 15.3564 26.9553 15.7768 27.657 15.9562C28.4971 16.2214 29.3985 16.2214 30.2386 15.9562C30.917 15.7768 31.5486 15.3872 31.5486 14.6463V13.6558H28.9457V13.3374H32.8447C33.6249 13.3374 33.8744 12.8066 34.1546 12.0349C34.4204 11.1702 34.4204 10.2457 34.1546 9.38105C33.9752 8.60082 33.6239 8.07111 32.8447 8.07111H31.8384L31.8447 8.0329ZM30.3586 14.3416C30.4486 14.3475 30.535 14.3792 30.6074 14.4329C30.6798 14.4867 30.7352 14.5601 30.767 14.6445C30.7988 14.7289 30.8055 14.8207 30.7865 14.9088C30.7674 14.997 30.7234 15.0778 30.6596 15.1416C30.5959 15.2053 30.5151 15.2494 30.4269 15.2684C30.3388 15.2874 30.247 15.2807 30.1626 15.2489C30.0782 15.2172 30.0048 15.1617 29.951 15.0893C29.8973 15.0169 29.8656 14.9305 29.8597 14.8405C29.8703 14.7117 29.9263 14.5909 30.0176 14.4996C30.109 14.4082 30.2298 14.3522 30.3586 14.3416Z" fill="white"/>
<path d="M34.5997 20.7062H23.2222C23.0734 20.6998 22.9329 20.6363 22.8299 20.5288C22.7269 20.4213 22.6694 20.2782 22.6694 20.1293C22.6694 19.9804 22.7269 19.8373 22.8299 19.7298C22.9329 19.6223 23.0734 19.5587 23.2222 19.5523H34.5997C34.7528 19.5523 34.8997 19.6132 35.008 19.7215C35.1163 19.8298 35.1771 19.9767 35.1771 20.1298C35.1771 20.283 35.1163 20.4298 35.008 20.5381C34.8997 20.6464 34.7528 20.7073 34.5997 20.7073V20.7062Z" fill="#1A3350"/>
<path d="M34.6002 23.9174H23.2226C23.0739 23.911 22.9334 23.8475 22.8304 23.74C22.7274 23.6325 22.6699 23.4893 22.6699 23.3405C22.6699 23.1916 22.7274 23.0485 22.8304 22.941C22.9334 22.8335 23.0739 22.7699 23.2226 22.7635H34.6002C34.7533 22.7635 34.9002 22.8244 35.0085 22.9327C35.1168 23.041 35.1776 23.1878 35.1776 23.341C35.1776 23.4941 35.1168 23.641 35.0085 23.7493C34.9002 23.8576 34.7533 23.9185 34.6002 23.9185V23.9174Z" fill="#1A3350"/>
<path d="M34.6003 27.3876H23.2228C23.145 27.3909 23.0673 27.3785 22.9944 27.351C22.9214 27.3235 22.8549 27.2816 22.7986 27.2277C22.7423 27.1738 22.6975 27.109 22.667 27.0374C22.6364 26.9657 22.6206 26.8886 22.6206 26.8107C22.6206 26.7327 22.6364 26.6556 22.667 26.584C22.6975 26.5123 22.7423 26.4476 22.7986 26.3937C22.8549 26.3398 22.9214 26.2978 22.9944 26.2703C23.0673 26.2428 23.145 26.2304 23.2228 26.2337H34.6003C34.7535 26.2337 34.9004 26.2946 35.0087 26.4029C35.117 26.5111 35.1778 26.658 35.1778 26.8112C35.1778 26.9643 35.117 27.1112 35.0087 27.2195C34.9004 27.3278 34.7535 27.3887 34.6003 27.3887V27.3876Z" fill="#1A3350"/>
<path d="M40.543 6.34844H35.6143V0.405975H36.7681V5.20198H40.543V6.34844Z" fill="#1A3350"/>
</svg>
